<mxfile host="app.diagrams.net" modified="2024-02-17T14:27:48.721Z" agent="Mozilla/5.0 (Windows NT 10.0; Win64; x64; rv:122.0) Gecko/20100101 Firefox/122.0" etag="m4hMoKtHkL6lV8bAzGUi" version="22.1.18" type="github">
  <diagram name="Page-1" id="WsQOCb_t8ttTBgEgipl2">
    <mxGraphModel dx="1434" dy="774" grid="1" gridSize="10" guides="1" tooltips="1" connect="1" arrows="1" fold="1" page="1" pageScale="1" pageWidth="1100" pageHeight="850" math="0" shadow="0">
      <root>
        <mxCell id="0" />
        <mxCell id="1" parent="0" />
        <mxCell id="HD4QG2lv-mAhUOJL-MCQ-1" style="edgeStyle=orthogonalEdgeStyle;rounded=0;orthogonalLoop=1;jettySize=auto;html=1;exitX=0.015;exitY=0.375;exitDx=0;exitDy=0;entryX=1;entryY=0.75;entryDx=0;entryDy=0;exitPerimeter=0;" parent="1" source="HD4QG2lv-mAhUOJL-MCQ-3" edge="1">
          <mxGeometry relative="1" as="geometry">
            <mxPoint x="450.00000000000006" y="350" as="sourcePoint" />
            <mxPoint x="339.6799999999999" y="350.6" as="targetPoint" />
          </mxGeometry>
        </mxCell>
        <mxCell id="HD4QG2lv-mAhUOJL-MCQ-2" value="laporan_tiket" style="edgeLabel;html=1;align=center;verticalAlign=middle;resizable=0;points=[];" parent="HD4QG2lv-mAhUOJL-MCQ-1" vertex="1" connectable="0">
          <mxGeometry x="0.137" relative="1" as="geometry">
            <mxPoint x="13" as="offset" />
          </mxGeometry>
        </mxCell>
        <mxCell id="HD4QG2lv-mAhUOJL-MCQ-3" value="Sistem Aplikasi Helpdesk Ticketing" style="ellipse;whiteSpace=wrap;html=1;aspect=fixed;" parent="1" vertex="1">
          <mxGeometry x="450" y="290" width="160" height="160" as="geometry" />
        </mxCell>
        <mxCell id="HD4QG2lv-mAhUOJL-MCQ-4" style="edgeStyle=orthogonalEdgeStyle;rounded=0;orthogonalLoop=1;jettySize=auto;html=1;exitX=0;exitY=0.25;exitDx=0;exitDy=0;entryX=0.993;entryY=0.409;entryDx=0;entryDy=0;entryPerimeter=0;" parent="1" source="HD4QG2lv-mAhUOJL-MCQ-8" target="HD4QG2lv-mAhUOJL-MCQ-3" edge="1">
          <mxGeometry relative="1" as="geometry" />
        </mxCell>
        <mxCell id="HD4QG2lv-mAhUOJL-MCQ-5" value="infor_tiket" style="edgeLabel;html=1;align=center;verticalAlign=middle;resizable=0;points=[];" parent="HD4QG2lv-mAhUOJL-MCQ-4" vertex="1" connectable="0">
          <mxGeometry x="0.0311" y="1" relative="1" as="geometry">
            <mxPoint as="offset" />
          </mxGeometry>
        </mxCell>
        <mxCell id="HD4QG2lv-mAhUOJL-MCQ-6" style="edgeStyle=orthogonalEdgeStyle;rounded=0;orthogonalLoop=1;jettySize=auto;html=1;exitX=0;exitY=0.75;exitDx=0;exitDy=0;entryX=0.995;entryY=0.595;entryDx=0;entryDy=0;entryPerimeter=0;startArrow=classic;startFill=1;endArrow=none;endFill=0;" parent="1" source="HD4QG2lv-mAhUOJL-MCQ-8" target="HD4QG2lv-mAhUOJL-MCQ-3" edge="1">
          <mxGeometry relative="1" as="geometry" />
        </mxCell>
        <mxCell id="HD4QG2lv-mAhUOJL-MCQ-7" value="info_tiket" style="edgeLabel;html=1;align=center;verticalAlign=middle;resizable=0;points=[];" parent="HD4QG2lv-mAhUOJL-MCQ-6" vertex="1" connectable="0">
          <mxGeometry x="0.0247" y="-1" relative="1" as="geometry">
            <mxPoint as="offset" />
          </mxGeometry>
        </mxCell>
        <mxCell id="HD4QG2lv-mAhUOJL-MCQ-8" value="Agent" style="rounded=0;whiteSpace=wrap;html=1;" parent="1" vertex="1">
          <mxGeometry x="830" y="340" width="120" height="60" as="geometry" />
        </mxCell>
        <mxCell id="HD4QG2lv-mAhUOJL-MCQ-9" style="edgeStyle=orthogonalEdgeStyle;rounded=0;orthogonalLoop=1;jettySize=auto;html=1;entryX=-0.009;entryY=0.407;entryDx=0;entryDy=0;exitX=1;exitY=0.25;exitDx=0;exitDy=0;entryPerimeter=0;" parent="1" edge="1">
          <mxGeometry relative="1" as="geometry">
            <mxPoint x="341.4399999999999" y="390" as="sourcePoint" />
            <mxPoint x="450.00000000000006" y="390.12" as="targetPoint" />
          </mxGeometry>
        </mxCell>
        <mxCell id="HD4QG2lv-mAhUOJL-MCQ-10" value="&lt;div&gt;info_user&lt;/div&gt;&lt;div&gt;role&lt;br&gt;&lt;/div&gt;&lt;div&gt;divisi&lt;/div&gt;&lt;div&gt;departemen&lt;br&gt;&lt;/div&gt;" style="edgeLabel;html=1;align=center;verticalAlign=middle;resizable=0;points=[];" parent="HD4QG2lv-mAhUOJL-MCQ-9" vertex="1" connectable="0">
          <mxGeometry x="-0.0545" y="2" relative="1" as="geometry">
            <mxPoint as="offset" />
          </mxGeometry>
        </mxCell>
        <mxCell id="HD4QG2lv-mAhUOJL-MCQ-11" value="Admin" style="rounded=0;whiteSpace=wrap;html=1;" parent="1" vertex="1">
          <mxGeometry x="220" y="340" width="120" height="60" as="geometry" />
        </mxCell>
        <mxCell id="HD4QG2lv-mAhUOJL-MCQ-12" style="edgeStyle=orthogonalEdgeStyle;rounded=0;orthogonalLoop=1;jettySize=auto;html=1;exitX=0.75;exitY=1;exitDx=0;exitDy=0;entryX=0.689;entryY=0.037;entryDx=0;entryDy=0;entryPerimeter=0;" parent="1" source="HD4QG2lv-mAhUOJL-MCQ-16" target="HD4QG2lv-mAhUOJL-MCQ-3" edge="1">
          <mxGeometry relative="1" as="geometry">
            <mxPoint x="560" y="300" as="targetPoint" />
          </mxGeometry>
        </mxCell>
        <mxCell id="HD4QG2lv-mAhUOJL-MCQ-13" value="info_tiket" style="edgeLabel;html=1;align=center;verticalAlign=middle;resizable=0;points=[];" parent="HD4QG2lv-mAhUOJL-MCQ-12" vertex="1" connectable="0">
          <mxGeometry y="1" relative="1" as="geometry">
            <mxPoint as="offset" />
          </mxGeometry>
        </mxCell>
        <mxCell id="HD4QG2lv-mAhUOJL-MCQ-14" style="edgeStyle=orthogonalEdgeStyle;rounded=0;orthogonalLoop=1;jettySize=auto;html=1;exitX=0.25;exitY=1;exitDx=0;exitDy=0;entryX=0.313;entryY=0.031;entryDx=0;entryDy=0;entryPerimeter=0;endArrow=none;endFill=0;startArrow=classic;startFill=1;" parent="1" source="HD4QG2lv-mAhUOJL-MCQ-16" target="HD4QG2lv-mAhUOJL-MCQ-3" edge="1">
          <mxGeometry relative="1" as="geometry">
            <mxPoint x="500" y="290" as="targetPoint" />
          </mxGeometry>
        </mxCell>
        <mxCell id="HD4QG2lv-mAhUOJL-MCQ-15" value="info_tiket" style="edgeLabel;html=1;align=center;verticalAlign=middle;resizable=0;points=[];" parent="HD4QG2lv-mAhUOJL-MCQ-14" vertex="1" connectable="0">
          <mxGeometry x="-0.2554" y="1" relative="1" as="geometry">
            <mxPoint x="-1" y="-2" as="offset" />
          </mxGeometry>
        </mxCell>
        <mxCell id="HD4QG2lv-mAhUOJL-MCQ-16" value="Customer" style="rounded=0;whiteSpace=wrap;html=1;" parent="1" vertex="1">
          <mxGeometry x="470" y="160" width="120" height="60" as="geometry" />
        </mxCell>
        <mxCell id="QjOwZsKHRcYdFZke12NZ-1" style="edgeStyle=orthogonalEdgeStyle;rounded=0;orthogonalLoop=1;jettySize=auto;html=1;exitX=0.015;exitY=0.375;exitDx=0;exitDy=0;entryX=1;entryY=0.75;entryDx=0;entryDy=0;exitPerimeter=0;" edge="1" parent="1" source="QjOwZsKHRcYdFZke12NZ-3">
          <mxGeometry relative="1" as="geometry">
            <mxPoint x="450.00000000000006" y="660" as="sourcePoint" />
            <mxPoint x="339.6799999999999" y="660.6" as="targetPoint" />
          </mxGeometry>
        </mxCell>
        <mxCell id="QjOwZsKHRcYdFZke12NZ-2" value="laporan_tiket" style="edgeLabel;html=1;align=center;verticalAlign=middle;resizable=0;points=[];" vertex="1" connectable="0" parent="QjOwZsKHRcYdFZke12NZ-1">
          <mxGeometry x="0.137" relative="1" as="geometry">
            <mxPoint x="13" as="offset" />
          </mxGeometry>
        </mxCell>
        <mxCell id="QjOwZsKHRcYdFZke12NZ-3" value="Sistem Aplikasi Helpdesk Ticketing" style="ellipse;whiteSpace=wrap;html=1;aspect=fixed;" vertex="1" parent="1">
          <mxGeometry x="450" y="600" width="160" height="160" as="geometry" />
        </mxCell>
        <mxCell id="QjOwZsKHRcYdFZke12NZ-4" style="edgeStyle=orthogonalEdgeStyle;rounded=0;orthogonalLoop=1;jettySize=auto;html=1;exitX=0;exitY=0.25;exitDx=0;exitDy=0;entryX=0.993;entryY=0.409;entryDx=0;entryDy=0;entryPerimeter=0;" edge="1" parent="1" source="QjOwZsKHRcYdFZke12NZ-8" target="QjOwZsKHRcYdFZke12NZ-3">
          <mxGeometry relative="1" as="geometry" />
        </mxCell>
        <mxCell id="QjOwZsKHRcYdFZke12NZ-5" value="data penanganan" style="edgeLabel;html=1;align=center;verticalAlign=middle;resizable=0;points=[];" vertex="1" connectable="0" parent="QjOwZsKHRcYdFZke12NZ-4">
          <mxGeometry x="0.0311" y="1" relative="1" as="geometry">
            <mxPoint as="offset" />
          </mxGeometry>
        </mxCell>
        <mxCell id="QjOwZsKHRcYdFZke12NZ-6" style="edgeStyle=orthogonalEdgeStyle;rounded=0;orthogonalLoop=1;jettySize=auto;html=1;exitX=0;exitY=0.75;exitDx=0;exitDy=0;entryX=0.995;entryY=0.595;entryDx=0;entryDy=0;entryPerimeter=0;startArrow=classic;startFill=1;endArrow=none;endFill=0;" edge="1" parent="1" source="QjOwZsKHRcYdFZke12NZ-8" target="QjOwZsKHRcYdFZke12NZ-3">
          <mxGeometry relative="1" as="geometry" />
        </mxCell>
        <mxCell id="QjOwZsKHRcYdFZke12NZ-7" value="data kendala" style="edgeLabel;html=1;align=center;verticalAlign=middle;resizable=0;points=[];" vertex="1" connectable="0" parent="QjOwZsKHRcYdFZke12NZ-6">
          <mxGeometry x="0.0247" y="-1" relative="1" as="geometry">
            <mxPoint as="offset" />
          </mxGeometry>
        </mxCell>
        <mxCell id="QjOwZsKHRcYdFZke12NZ-8" value="Agent" style="rounded=0;whiteSpace=wrap;html=1;" vertex="1" parent="1">
          <mxGeometry x="830" y="650" width="120" height="60" as="geometry" />
        </mxCell>
        <mxCell id="QjOwZsKHRcYdFZke12NZ-9" style="edgeStyle=orthogonalEdgeStyle;rounded=0;orthogonalLoop=1;jettySize=auto;html=1;entryX=-0.009;entryY=0.407;entryDx=0;entryDy=0;exitX=1;exitY=0.25;exitDx=0;exitDy=0;entryPerimeter=0;" edge="1" parent="1">
          <mxGeometry relative="1" as="geometry">
            <mxPoint x="341.4399999999999" y="700" as="sourcePoint" />
            <mxPoint x="450.00000000000006" y="700.12" as="targetPoint" />
          </mxGeometry>
        </mxCell>
        <mxCell id="QjOwZsKHRcYdFZke12NZ-10" value="data user baru" style="edgeLabel;html=1;align=center;verticalAlign=middle;resizable=0;points=[];" vertex="1" connectable="0" parent="QjOwZsKHRcYdFZke12NZ-9">
          <mxGeometry x="-0.0545" y="2" relative="1" as="geometry">
            <mxPoint as="offset" />
          </mxGeometry>
        </mxCell>
        <mxCell id="QjOwZsKHRcYdFZke12NZ-11" value="Admin" style="rounded=0;whiteSpace=wrap;html=1;" vertex="1" parent="1">
          <mxGeometry x="220" y="650" width="120" height="60" as="geometry" />
        </mxCell>
        <mxCell id="QjOwZsKHRcYdFZke12NZ-12" style="edgeStyle=orthogonalEdgeStyle;rounded=0;orthogonalLoop=1;jettySize=auto;html=1;exitX=0.75;exitY=1;exitDx=0;exitDy=0;entryX=0.689;entryY=0.037;entryDx=0;entryDy=0;entryPerimeter=0;" edge="1" parent="1" source="QjOwZsKHRcYdFZke12NZ-16" target="QjOwZsKHRcYdFZke12NZ-3">
          <mxGeometry relative="1" as="geometry">
            <mxPoint x="560" y="610" as="targetPoint" />
          </mxGeometry>
        </mxCell>
        <mxCell id="QjOwZsKHRcYdFZke12NZ-13" value="mengajukan tiket" style="edgeLabel;html=1;align=center;verticalAlign=middle;resizable=0;points=[];" vertex="1" connectable="0" parent="QjOwZsKHRcYdFZke12NZ-12">
          <mxGeometry y="1" relative="1" as="geometry">
            <mxPoint as="offset" />
          </mxGeometry>
        </mxCell>
        <mxCell id="QjOwZsKHRcYdFZke12NZ-14" style="edgeStyle=orthogonalEdgeStyle;rounded=0;orthogonalLoop=1;jettySize=auto;html=1;exitX=0.25;exitY=1;exitDx=0;exitDy=0;entryX=0.313;entryY=0.031;entryDx=0;entryDy=0;entryPerimeter=0;endArrow=none;endFill=0;startArrow=classic;startFill=1;" edge="1" parent="1" source="QjOwZsKHRcYdFZke12NZ-16" target="QjOwZsKHRcYdFZke12NZ-3">
          <mxGeometry relative="1" as="geometry">
            <mxPoint x="500" y="600" as="targetPoint" />
          </mxGeometry>
        </mxCell>
        <mxCell id="QjOwZsKHRcYdFZke12NZ-15" value="data update tiket" style="edgeLabel;html=1;align=center;verticalAlign=middle;resizable=0;points=[];" vertex="1" connectable="0" parent="QjOwZsKHRcYdFZke12NZ-14">
          <mxGeometry x="-0.2554" y="1" relative="1" as="geometry">
            <mxPoint x="-1" y="-2" as="offset" />
          </mxGeometry>
        </mxCell>
        <mxCell id="QjOwZsKHRcYdFZke12NZ-16" value="Customer" style="rounded=0;whiteSpace=wrap;html=1;" vertex="1" parent="1">
          <mxGeometry x="470" y="470" width="120" height="60" as="geometry" />
        </mxCell>
      </root>
    </mxGraphModel>
  </diagram>
</mxfile>
